<svg width="1920" height="1080" viewBox="0 0 1920 1080" fill="none" xmlns="http://www.w3.org/2000/svg">
<rect width="1920" height="1080" fill="#191919"/>
<rect x="647" y="86" width="626" height="489" fill="#3F3F3F"/>
<rect width="1920" height="60" fill="#3F3F3F"/>
<path d="M927.672 165.52H920.367L920.328 161.496H926.461C927.542 161.496 928.427 161.359 929.117 161.086C929.807 160.799 930.322 160.389 930.66 159.855C931.012 159.309 931.188 158.645 931.188 157.863C931.188 156.978 931.018 156.262 930.68 155.715C930.354 155.168 929.84 154.771 929.137 154.523C928.447 154.276 927.555 154.152 926.461 154.152H922.398V178H916.539V149.562H926.461C928.115 149.562 929.592 149.719 930.895 150.031C932.21 150.344 933.323 150.819 934.234 151.457C935.146 152.095 935.842 152.902 936.324 153.879C936.806 154.842 937.047 155.988 937.047 157.316C937.047 158.488 936.78 159.569 936.246 160.559C935.725 161.548 934.898 162.355 933.766 162.98C932.646 163.605 931.181 163.951 929.371 164.016L927.672 165.52ZM927.418 178H918.766L921.051 173.43H927.418C928.447 173.43 929.286 173.267 929.938 172.941C930.589 172.603 931.07 172.147 931.383 171.574C931.695 171.001 931.852 170.344 931.852 169.602C931.852 168.768 931.708 168.046 931.422 167.434C931.148 166.822 930.706 166.353 930.094 166.027C929.482 165.689 928.674 165.52 927.672 165.52H922.027L922.066 161.496H929.098L930.445 163.078C932.177 163.052 933.57 163.358 934.625 163.996C935.693 164.621 936.467 165.435 936.949 166.438C937.444 167.44 937.691 168.514 937.691 169.66C937.691 171.483 937.294 173.02 936.5 174.27C935.706 175.507 934.54 176.438 933.004 177.062C931.48 177.688 929.618 178 927.418 178ZM946.266 156.867L949.762 163.293L953.355 156.867H959.352L953.375 167.199L959.625 178H953.609L949.801 171.203L945.992 178H939.977L946.227 167.199L940.25 156.867H946.266ZM960.523 167.648V167.238C960.523 165.689 960.745 164.263 961.188 162.961C961.63 161.646 962.275 160.507 963.121 159.543C963.967 158.579 965.009 157.831 966.246 157.297C967.483 156.75 968.902 156.477 970.504 156.477C972.105 156.477 973.531 156.75 974.781 157.297C976.031 157.831 977.079 158.579 977.926 159.543C978.785 160.507 979.436 161.646 979.879 162.961C980.322 164.263 980.543 165.689 980.543 167.238V167.648C980.543 169.185 980.322 170.611 979.879 171.926C979.436 173.228 978.785 174.367 977.926 175.344C977.079 176.307 976.038 177.056 974.801 177.59C973.564 178.124 972.145 178.391 970.543 178.391C968.941 178.391 967.516 178.124 966.266 177.59C965.029 177.056 963.98 176.307 963.121 175.344C962.275 174.367 961.63 173.228 961.188 171.926C960.745 170.611 960.523 169.185 960.523 167.648ZM966.148 167.238V167.648C966.148 168.534 966.227 169.361 966.383 170.129C966.539 170.897 966.786 171.574 967.125 172.16C967.477 172.733 967.932 173.182 968.492 173.508C969.052 173.833 969.736 173.996 970.543 173.996C971.324 173.996 971.995 173.833 972.555 173.508C973.115 173.182 973.564 172.733 973.902 172.16C974.241 171.574 974.488 170.897 974.645 170.129C974.814 169.361 974.898 168.534 974.898 167.648V167.238C974.898 166.379 974.814 165.572 974.645 164.816C974.488 164.048 974.234 163.371 973.883 162.785C973.544 162.186 973.095 161.717 972.535 161.379C971.975 161.04 971.298 160.871 970.504 160.871C969.71 160.871 969.033 161.04 968.473 161.379C967.926 161.717 967.477 162.186 967.125 162.785C966.786 163.371 966.539 164.048 966.383 164.816C966.227 165.572 966.148 166.379 966.148 167.238ZM986.402 156.867H992.027L991.852 163.938C991.799 166.203 991.539 168.15 991.07 169.777C990.602 171.405 989.977 172.772 989.195 173.879C988.414 174.986 987.522 175.871 986.52 176.535C985.53 177.186 984.488 177.674 983.395 178H982.34L982.281 173.664L982.867 173.605C983.531 172.915 984.078 172.245 984.508 171.594C984.938 170.93 985.27 170.233 985.504 169.504C985.738 168.775 985.908 167.961 986.012 167.062C986.129 166.164 986.201 165.122 986.227 163.938L986.402 156.867ZM987.926 156.867H1001.93V178H996.324V161.379H987.926V156.867ZM981.051 173.605H1004.96V184.348H999.332V178H986.812V184.348H981.051V173.605Z" fill="white"/>
<path d="M655.398 14.5625V43H649.539V14.5625H655.398ZM672.43 14.5625L661.16 28.6055L654.656 35.5977L653.602 30.0508L657.996 24.0352L665.242 14.5625H672.43ZM665.77 43L657.391 29.8555L661.727 26.2227L672.703 43H665.77ZM686.531 19.4258L678.797 43H672.566L683.133 14.5625H687.098L686.531 19.4258ZM692.957 43L685.203 19.4258L684.578 14.5625H688.582L699.207 43H692.957ZM692.605 32.4141V37.0039H677.586V32.4141H692.605ZM706.492 25.9297V51.125H700.867V21.8672H706.082L706.492 25.9297ZM719.871 32.1992V32.6094C719.871 34.1458 719.689 35.5716 719.324 36.8867C718.973 38.2018 718.452 39.3477 717.762 40.3242C717.072 41.2878 716.212 42.043 715.184 42.5898C714.168 43.1237 712.996 43.3906 711.668 43.3906C710.379 43.3906 709.259 43.1302 708.309 42.6094C707.358 42.0885 706.557 41.3594 705.906 40.4219C705.268 39.4714 704.754 38.3711 704.363 37.1211C703.973 35.8711 703.673 34.5299 703.465 33.0977V32.0234C703.673 30.487 703.973 29.0807 704.363 27.8047C704.754 26.5156 705.268 25.4023 705.906 24.4648C706.557 23.5143 707.352 22.7786 708.289 22.2578C709.24 21.737 710.353 21.4766 711.629 21.4766C712.97 21.4766 714.148 21.7305 715.164 22.2383C716.193 22.7461 717.052 23.4753 717.742 24.4258C718.445 25.3763 718.973 26.5091 719.324 27.8242C719.689 29.1393 719.871 30.5977 719.871 32.1992ZM714.227 32.6094V32.1992C714.227 31.3008 714.148 30.474 713.992 29.7188C713.849 28.9505 713.615 28.2799 713.289 27.707C712.977 27.1341 712.56 26.6914 712.039 26.3789C711.531 26.0534 710.913 25.8906 710.184 25.8906C709.415 25.8906 708.758 26.0143 708.211 26.2617C707.677 26.5091 707.241 26.8672 706.902 27.3359C706.564 27.8047 706.31 28.3646 706.141 29.0156C705.971 29.6667 705.867 30.4023 705.828 31.2227V33.9375C705.893 34.901 706.076 35.7669 706.375 36.5352C706.674 37.2904 707.137 37.8893 707.762 38.332C708.387 38.7747 709.207 38.9961 710.223 38.9961C710.965 38.9961 711.59 38.8333 712.098 38.5078C712.605 38.1693 713.016 37.707 713.328 37.1211C713.654 36.5352 713.882 35.8581 714.012 35.0898C714.155 34.3216 714.227 33.4948 714.227 32.6094ZM728.992 25.9297V51.125H723.367V21.8672H728.582L728.992 25.9297ZM742.371 32.1992V32.6094C742.371 34.1458 742.189 35.5716 741.824 36.8867C741.473 38.2018 740.952 39.3477 740.262 40.3242C739.572 41.2878 738.712 42.043 737.684 42.5898C736.668 43.1237 735.496 43.3906 734.168 43.3906C732.879 43.3906 731.759 43.1302 730.809 42.6094C729.858 42.0885 729.057 41.3594 728.406 40.4219C727.768 39.4714 727.254 38.3711 726.863 37.1211C726.473 35.8711 726.173 34.5299 725.965 33.0977V32.0234C726.173 30.487 726.473 29.0807 726.863 27.8047C727.254 26.5156 727.768 25.4023 728.406 24.4648C729.057 23.5143 729.852 22.7786 730.789 22.2578C731.74 21.737 732.853 21.4766 734.129 21.4766C735.47 21.4766 736.648 21.7305 737.664 22.2383C738.693 22.7461 739.552 23.4753 740.242 24.4258C740.945 25.3763 741.473 26.5091 741.824 27.8242C742.189 29.1393 742.371 30.5977 742.371 32.1992ZM736.727 32.6094V32.1992C736.727 31.3008 736.648 30.474 736.492 29.7188C736.349 28.9505 736.115 28.2799 735.789 27.707C735.477 27.1341 735.06 26.6914 734.539 26.3789C734.031 26.0534 733.413 25.8906 732.684 25.8906C731.915 25.8906 731.258 26.0143 730.711 26.2617C730.177 26.5091 729.741 26.8672 729.402 27.3359C729.064 27.8047 728.81 28.3646 728.641 29.0156C728.471 29.6667 728.367 30.4023 728.328 31.2227V33.9375C728.393 34.901 728.576 35.7669 728.875 36.5352C729.174 37.2904 729.637 37.8893 730.262 38.332C730.887 38.7747 731.707 38.9961 732.723 38.9961C733.465 38.9961 734.09 38.8333 734.598 38.5078C735.105 38.1693 735.516 37.707 735.828 37.1211C736.154 36.5352 736.382 35.8581 736.512 35.0898C736.655 34.3216 736.727 33.4948 736.727 32.6094Z" fill="white"/>
<rect x="846" y="228" width="227" height="37" rx="10" fill="#6A6A6A"/>
<rect x="846" y="284" width="227" height="37" rx="10" fill="#6A6A6A"/>
<path d="M866.554 253H865.294V244.11H862.13C862.065 244.623 861.995 245.165 861.92 245.734C861.845 246.294 861.766 246.849 861.682 247.4C861.607 247.951 861.533 248.469 861.458 248.954C861.383 249.439 861.309 249.864 861.234 250.228C861.113 250.853 860.963 251.385 860.786 251.824C860.609 252.263 860.371 252.594 860.072 252.818C859.783 253.042 859.4 253.154 858.924 253.154C858.765 253.154 858.602 253.135 858.434 253.098C858.275 253.07 858.135 253.033 858.014 252.986V251.936C858.117 251.983 858.233 252.025 858.364 252.062C858.495 252.09 858.635 252.104 858.784 252.104C859.064 252.104 859.283 251.992 859.442 251.768C859.61 251.535 859.741 251.25 859.834 250.914C859.927 250.569 860.007 250.228 860.072 249.892C860.128 249.621 860.193 249.262 860.268 248.814C860.343 248.357 860.422 247.825 860.506 247.218C860.599 246.611 860.693 245.953 860.786 245.244C860.889 244.525 860.987 243.779 861.08 243.004H866.554V253ZM875.626 249.234C875.626 249.859 875.542 250.415 875.374 250.9C875.215 251.376 874.982 251.782 874.674 252.118C874.375 252.454 874.007 252.711 873.568 252.888C873.139 253.056 872.658 253.14 872.126 253.14C871.631 253.14 871.174 253.056 870.754 252.888C870.334 252.711 869.97 252.454 869.662 252.118C869.354 251.782 869.111 251.376 868.934 250.9C868.766 250.415 868.682 249.859 868.682 249.234C868.682 248.403 868.822 247.703 869.102 247.134C869.382 246.555 869.783 246.117 870.306 245.818C870.829 245.51 871.449 245.356 872.168 245.356C872.849 245.356 873.447 245.51 873.96 245.818C874.483 246.117 874.889 246.555 875.178 247.134C875.477 247.703 875.626 248.403 875.626 249.234ZM869.956 249.234C869.956 249.822 870.031 250.335 870.18 250.774C870.339 251.203 870.581 251.535 870.908 251.768C871.235 252.001 871.65 252.118 872.154 252.118C872.658 252.118 873.073 252.001 873.4 251.768C873.727 251.535 873.965 251.203 874.114 250.774C874.273 250.335 874.352 249.822 874.352 249.234C874.352 248.637 874.273 248.128 874.114 247.708C873.955 247.288 873.713 246.966 873.386 246.742C873.069 246.509 872.653 246.392 872.14 246.392C871.375 246.392 870.819 246.644 870.474 247.148C870.129 247.652 869.956 248.347 869.956 249.234ZM882.157 245.496V246.532H878.811V253H877.579V245.496H882.157ZM884.797 250.074C884.797 250.158 884.793 250.279 884.783 250.438C884.783 250.587 884.779 250.751 884.769 250.928C884.76 251.096 884.751 251.259 884.741 251.418C884.732 251.567 884.723 251.689 884.713 251.782L888.731 245.496H890.243V253H889.095V248.576C889.095 248.427 889.095 248.231 889.095 247.988C889.105 247.745 889.114 247.507 889.123 247.274C889.133 247.031 889.142 246.849 889.151 246.728L885.161 253H883.635V245.496H884.797V250.074ZM893.863 245.496V248.618H897.937V245.496H899.169V253H897.937V249.654H893.863V253H892.631V245.496H893.863Z" fill="#D3D3D3" fill-opacity="0.5"/>
<path d="M859.358 308V298.004H866.862V308H865.616V299.11H860.618V308H859.358ZM872.272 300.37C873.187 300.37 873.864 300.571 874.302 300.972C874.741 301.373 874.96 302.013 874.96 302.89V308H874.064L873.826 306.936H873.77C873.556 307.207 873.332 307.435 873.098 307.622C872.874 307.799 872.613 307.93 872.314 308.014C872.025 308.098 871.67 308.14 871.25 308.14C870.802 308.14 870.396 308.061 870.032 307.902C869.678 307.743 869.398 307.501 869.192 307.174C868.987 306.838 868.884 306.418 868.884 305.914C868.884 305.167 869.178 304.593 869.766 304.192C870.354 303.781 871.26 303.557 872.482 303.52L873.756 303.478V303.03C873.756 302.405 873.621 301.971 873.35 301.728C873.08 301.485 872.697 301.364 872.202 301.364C871.81 301.364 871.437 301.425 871.082 301.546C870.728 301.658 870.396 301.789 870.088 301.938L869.71 301.014C870.037 300.837 870.424 300.687 870.872 300.566C871.32 300.435 871.787 300.37 872.272 300.37ZM872.636 304.374C871.703 304.411 871.054 304.561 870.69 304.822C870.336 305.083 870.158 305.452 870.158 305.928C870.158 306.348 870.284 306.656 870.536 306.852C870.798 307.048 871.129 307.146 871.53 307.146C872.165 307.146 872.692 306.973 873.112 306.628C873.532 306.273 873.742 305.732 873.742 305.004V304.332L872.636 304.374ZM880.848 300.356C881.772 300.356 882.514 300.678 883.074 301.322C883.643 301.966 883.928 302.937 883.928 304.234C883.928 305.083 883.797 305.802 883.536 306.39C883.284 306.969 882.925 307.407 882.458 307.706C882.001 307.995 881.459 308.14 880.834 308.14C880.451 308.14 880.111 308.089 879.812 307.986C879.513 307.883 879.257 307.753 879.042 307.594C878.837 307.426 878.659 307.244 878.51 307.048H878.426C878.445 307.207 878.463 307.407 878.482 307.65C878.501 307.893 878.51 308.103 878.51 308.28V311.36H877.278V300.496H878.286L878.454 301.518H878.51C878.659 301.303 878.837 301.107 879.042 300.93C879.257 300.753 879.509 300.613 879.798 300.51C880.097 300.407 880.447 300.356 880.848 300.356ZM880.624 301.392C880.12 301.392 879.714 301.49 879.406 301.686C879.098 301.873 878.874 302.157 878.734 302.54C878.594 302.923 878.519 303.408 878.51 303.996V304.234C878.51 304.85 878.575 305.373 878.706 305.802C878.837 306.231 879.056 306.558 879.364 306.782C879.681 307.006 880.111 307.118 880.652 307.118C881.109 307.118 881.483 306.992 881.772 306.74C882.071 306.488 882.29 306.147 882.43 305.718C882.579 305.279 882.654 304.78 882.654 304.22C882.654 303.361 882.486 302.675 882.15 302.162C881.823 301.649 881.315 301.392 880.624 301.392ZM892.415 304.234C892.415 304.859 892.331 305.415 892.163 305.9C892.005 306.376 891.771 306.782 891.463 307.118C891.165 307.454 890.796 307.711 890.357 307.888C889.928 308.056 889.447 308.14 888.915 308.14C888.421 308.14 887.963 308.056 887.543 307.888C887.123 307.711 886.759 307.454 886.451 307.118C886.143 306.782 885.901 306.376 885.723 305.9C885.555 305.415 885.471 304.859 885.471 304.234C885.471 303.403 885.611 302.703 885.891 302.134C886.171 301.555 886.573 301.117 887.095 300.818C887.618 300.51 888.239 300.356 888.957 300.356C889.639 300.356 890.236 300.51 890.749 300.818C891.272 301.117 891.678 301.555 891.967 302.134C892.266 302.703 892.415 303.403 892.415 304.234ZM886.745 304.234C886.745 304.822 886.82 305.335 886.969 305.774C887.128 306.203 887.371 306.535 887.697 306.768C888.024 307.001 888.439 307.118 888.943 307.118C889.447 307.118 889.863 307.001 890.189 306.768C890.516 306.535 890.754 306.203 890.903 305.774C891.062 305.335 891.141 304.822 891.141 304.234C891.141 303.637 891.062 303.128 890.903 302.708C890.745 302.288 890.502 301.966 890.175 301.742C889.858 301.509 889.443 301.392 888.929 301.392C888.164 301.392 887.609 301.644 887.263 302.148C886.918 302.652 886.745 303.347 886.745 304.234ZM900.08 308H898.834V301.518H896.622C896.528 302.703 896.412 303.716 896.272 304.556C896.132 305.387 895.954 306.063 895.74 306.586C895.525 307.109 895.268 307.491 894.97 307.734C894.671 307.977 894.321 308.098 893.92 308.098C893.798 308.098 893.677 308.089 893.556 308.07C893.444 308.061 893.35 308.037 893.276 308V307.076C893.332 307.095 893.392 307.109 893.458 307.118C893.523 307.127 893.588 307.132 893.654 307.132C893.859 307.132 894.046 307.048 894.214 306.88C894.382 306.712 894.531 306.455 894.662 306.11C894.802 305.765 894.928 305.331 895.04 304.808C895.152 304.276 895.25 303.651 895.334 302.932C895.418 302.213 895.492 301.401 895.558 300.496H900.08V308ZM905.919 303.576C906.573 303.576 907.114 303.655 907.543 303.814C907.973 303.973 908.295 304.211 908.509 304.528C908.733 304.836 908.845 305.228 908.845 305.704C908.845 306.171 908.738 306.577 908.523 306.922C908.318 307.267 907.996 307.533 907.557 307.72C907.119 307.907 906.554 308 905.863 308H902.461V300.496H903.693V303.576H905.919ZM907.613 305.774C907.613 305.317 907.45 305.009 907.123 304.85C906.806 304.682 906.358 304.598 905.779 304.598H903.693V307.006H905.807C906.33 307.006 906.759 306.913 907.095 306.726C907.441 306.539 907.613 306.222 907.613 305.774Z" fill="#D3D3D3" fill-opacity="0.5"/>
<rect x="846" y="380" width="227" height="37" rx="10" fill="#E9E9E9"/>
<path d="M935.418 392.148C936.486 392.148 937.38 392.25 938.1 392.454C938.832 392.658 939.378 392.994 939.738 393.462C940.11 393.93 940.296 394.554 940.296 395.334C940.296 395.838 940.2 396.288 940.008 396.684C939.828 397.068 939.552 397.392 939.18 397.656C938.82 397.908 938.376 398.082 937.848 398.178V398.268C938.388 398.352 938.874 398.508 939.306 398.736C939.75 398.964 940.098 399.288 940.35 399.708C940.602 400.128 940.728 400.674 940.728 401.346C940.728 402.126 940.548 402.792 940.188 403.344C939.828 403.884 939.312 404.298 938.64 404.586C937.98 404.862 937.188 405 936.264 405H931.746V392.148H935.418ZM935.742 397.62C936.846 397.62 937.602 397.446 938.01 397.098C938.418 396.738 938.622 396.21 938.622 395.514C938.622 394.806 938.37 394.302 937.866 394.002C937.374 393.69 936.582 393.534 935.49 393.534H933.366V397.62H935.742ZM933.366 398.97V403.632H935.958C937.098 403.632 937.89 403.41 938.334 402.966C938.778 402.522 939 401.94 939 401.22C939 400.764 938.898 400.368 938.694 400.032C938.502 399.696 938.172 399.438 937.704 399.258C937.248 399.066 936.624 398.97 935.832 398.97H933.366ZM951.625 400.158C951.625 400.962 951.517 401.676 951.301 402.3C951.097 402.912 950.797 403.434 950.401 403.866C950.017 404.298 949.543 404.628 948.979 404.856C948.427 405.072 947.809 405.18 947.125 405.18C946.489 405.18 945.901 405.072 945.361 404.856C944.821 404.628 944.353 404.298 943.957 403.866C943.561 403.434 943.249 402.912 943.021 402.3C942.805 401.676 942.697 400.962 942.697 400.158C942.697 399.09 942.877 398.19 943.237 397.458C943.597 396.714 944.113 396.15 944.785 395.766C945.457 395.37 946.255 395.172 947.179 395.172C948.055 395.172 948.823 395.37 949.483 395.766C950.155 396.15 950.677 396.714 951.049 397.458C951.433 398.19 951.625 399.09 951.625 400.158ZM944.335 400.158C944.335 400.914 944.431 401.574 944.623 402.138C944.827 402.69 945.139 403.116 945.559 403.416C945.979 403.716 946.513 403.866 947.161 403.866C947.809 403.866 948.343 403.716 948.763 403.416C949.183 403.116 949.489 402.69 949.681 402.138C949.885 401.574 949.987 400.914 949.987 400.158C949.987 399.39 949.885 398.736 949.681 398.196C949.477 397.656 949.165 397.242 948.745 396.954C948.337 396.654 947.803 396.504 947.143 396.504C946.159 396.504 945.445 396.828 945.001 397.476C944.557 398.124 944.335 399.018 944.335 400.158ZM961.947 391.356C961.899 391.956 961.749 392.46 961.497 392.868C961.257 393.276 960.897 393.582 960.417 393.786C959.937 393.99 959.313 394.092 958.545 394.092C957.765 394.092 957.135 393.99 956.655 393.786C956.187 393.582 955.845 393.282 955.629 392.886C955.413 392.478 955.281 391.968 955.233 391.356H956.709C956.769 392.004 956.937 392.442 957.213 392.67C957.501 392.886 957.957 392.994 958.581 392.994C959.133 392.994 959.565 392.88 959.877 392.652C960.201 392.412 960.393 391.98 960.453 391.356H961.947ZM955.629 401.238C955.629 401.346 955.623 401.502 955.611 401.706C955.611 401.898 955.605 402.108 955.593 402.336C955.581 402.552 955.569 402.762 955.557 402.966C955.545 403.158 955.533 403.314 955.521 403.434L960.687 395.352H962.631V405H961.155V399.312C961.155 399.12 961.155 398.868 961.155 398.556C961.167 398.244 961.179 397.938 961.191 397.638C961.203 397.326 961.215 397.092 961.227 396.936L956.097 405H954.135V395.352H955.629V401.238ZM972.362 396.684H969.212V405H967.646V396.684H964.532V395.352H972.362V396.684ZM975.756 401.238C975.756 401.346 975.75 401.502 975.738 401.706C975.738 401.898 975.732 402.108 975.72 402.336C975.708 402.552 975.696 402.762 975.684 402.966C975.672 403.158 975.66 403.314 975.648 403.434L980.814 395.352H982.758V405H981.282V399.312C981.282 399.12 981.282 398.868 981.282 398.556C981.294 398.244 981.306 397.938 981.318 397.638C981.33 397.326 981.342 397.092 981.354 396.936L976.224 405H974.262V395.352H975.756V401.238Z" fill="black"/>
<path d="M920.004 432.004C921.311 432.004 922.263 432.261 922.86 432.774C923.457 433.287 923.756 434.011 923.756 434.944C923.756 435.355 923.686 435.751 923.546 436.134C923.415 436.507 923.196 436.843 922.888 437.142C922.58 437.441 922.169 437.679 921.656 437.856C921.143 438.024 920.513 438.108 919.766 438.108H918.618V442H917.358V432.004H920.004ZM919.892 433.082H918.618V437.03H919.626C920.261 437.03 920.788 436.965 921.208 436.834C921.628 436.694 921.941 436.475 922.146 436.176C922.351 435.877 922.454 435.485 922.454 435C922.454 434.356 922.249 433.875 921.838 433.558C921.427 433.241 920.779 433.082 919.892 433.082ZM928.565 434.356C929.209 434.356 929.759 434.496 930.217 434.776C930.683 435.056 931.038 435.453 931.281 435.966C931.533 436.47 931.659 437.063 931.659 437.744V438.486H926.521C926.539 439.335 926.754 439.984 927.165 440.432C927.585 440.871 928.168 441.09 928.915 441.09C929.391 441.09 929.811 441.048 930.175 440.964C930.548 440.871 930.931 440.74 931.323 440.572V441.65C930.94 441.818 930.562 441.939 930.189 442.014C929.815 442.098 929.372 442.14 928.859 442.14C928.149 442.14 927.519 441.995 926.969 441.706C926.427 441.417 926.003 440.987 925.695 440.418C925.396 439.839 925.247 439.135 925.247 438.304C925.247 437.483 925.382 436.778 925.653 436.19C925.933 435.602 926.32 435.149 926.815 434.832C927.319 434.515 927.902 434.356 928.565 434.356ZM928.551 435.364C927.963 435.364 927.496 435.555 927.151 435.938C926.815 436.311 926.614 436.834 926.549 437.506H930.371C930.371 437.077 930.305 436.703 930.175 436.386C930.044 436.069 929.843 435.821 929.573 435.644C929.311 435.457 928.971 435.364 928.551 435.364ZM938.147 434.496V435.532H934.801V442H933.569V434.496H938.147ZM940.788 439.074C940.788 439.158 940.783 439.279 940.774 439.438C940.774 439.587 940.769 439.751 940.76 439.928C940.75 440.096 940.741 440.259 940.732 440.418C940.722 440.567 940.713 440.689 940.704 440.782L944.722 434.496H946.234V442H945.086V437.576C945.086 437.427 945.086 437.231 945.086 436.988C945.095 436.745 945.104 436.507 945.114 436.274C945.123 436.031 945.132 435.849 945.142 435.728L941.152 442H939.626V434.496H940.788V439.074ZM951.632 442.14C950.969 442.14 950.376 442.005 949.854 441.734C949.34 441.463 948.934 441.043 948.636 440.474C948.346 439.905 948.202 439.177 948.202 438.29C948.202 437.366 948.356 436.615 948.664 436.036C948.972 435.457 949.387 435.033 949.91 434.762C950.442 434.491 951.044 434.356 951.716 434.356C952.098 434.356 952.467 434.398 952.822 434.482C953.176 434.557 953.466 434.65 953.69 434.762L953.312 435.784C953.088 435.7 952.826 435.621 952.528 435.546C952.229 435.471 951.949 435.434 951.688 435.434C951.184 435.434 950.768 435.541 950.442 435.756C950.115 435.971 949.872 436.288 949.714 436.708C949.555 437.128 949.476 437.651 949.476 438.276C949.476 438.873 949.555 439.382 949.714 439.802C949.872 440.222 950.11 440.539 950.428 440.754C950.745 440.969 951.142 441.076 951.618 441.076C952.028 441.076 952.388 441.034 952.696 440.95C953.013 440.866 953.302 440.763 953.564 440.642V441.734C953.312 441.865 953.032 441.963 952.724 442.028C952.425 442.103 952.061 442.14 951.632 442.14ZM960.528 435.532H958.078V442H956.86V435.532H954.438V434.496H960.528V435.532ZM965.576 434.356C966.5 434.356 967.242 434.678 967.802 435.322C968.372 435.966 968.656 436.937 968.656 438.234C968.656 439.083 968.526 439.802 968.264 440.39C968.012 440.969 967.653 441.407 967.186 441.706C966.729 441.995 966.188 442.14 965.562 442.14C965.18 442.14 964.839 442.089 964.54 441.986C964.242 441.883 963.985 441.753 963.77 441.594C963.565 441.426 963.388 441.244 963.238 441.048H963.154C963.173 441.207 963.192 441.407 963.21 441.65C963.229 441.893 963.238 442.103 963.238 442.28V445.36H962.006V434.496H963.014L963.182 435.518H963.238C963.388 435.303 963.565 435.107 963.77 434.93C963.985 434.753 964.237 434.613 964.526 434.51C964.825 434.407 965.175 434.356 965.576 434.356ZM965.352 435.392C964.848 435.392 964.442 435.49 964.134 435.686C963.826 435.873 963.602 436.157 963.462 436.54C963.322 436.923 963.248 437.408 963.238 437.996V438.234C963.238 438.85 963.304 439.373 963.434 439.802C963.565 440.231 963.784 440.558 964.092 440.782C964.41 441.006 964.839 441.118 965.38 441.118C965.838 441.118 966.211 440.992 966.5 440.74C966.799 440.488 967.018 440.147 967.158 439.718C967.308 439.279 967.382 438.78 967.382 438.22C967.382 437.361 967.214 436.675 966.878 436.162C966.552 435.649 966.043 435.392 965.352 435.392ZM973.462 434.37C974.376 434.37 975.053 434.571 975.492 434.972C975.93 435.373 976.15 436.013 976.15 436.89V442H975.254L975.016 440.936H974.96C974.745 441.207 974.521 441.435 974.288 441.622C974.064 441.799 973.802 441.93 973.504 442.014C973.214 442.098 972.86 442.14 972.44 442.14C971.992 442.14 971.586 442.061 971.222 441.902C970.867 441.743 970.587 441.501 970.382 441.174C970.176 440.838 970.074 440.418 970.074 439.914C970.074 439.167 970.368 438.593 970.956 438.192C971.544 437.781 972.449 437.557 973.672 437.52L974.946 437.478V437.03C974.946 436.405 974.81 435.971 974.54 435.728C974.269 435.485 973.886 435.364 973.392 435.364C973 435.364 972.626 435.425 972.272 435.546C971.917 435.658 971.586 435.789 971.278 435.938L970.9 435.014C971.226 434.837 971.614 434.687 972.062 434.566C972.51 434.435 972.976 434.37 973.462 434.37ZM973.826 438.374C972.892 438.411 972.244 438.561 971.88 438.822C971.525 439.083 971.348 439.452 971.348 439.928C971.348 440.348 971.474 440.656 971.726 440.852C971.987 441.048 972.318 441.146 972.72 441.146C973.354 441.146 973.882 440.973 974.302 440.628C974.722 440.273 974.932 439.732 974.932 439.004V438.332L973.826 438.374ZM985.873 444.604H984.669V442H978.467V434.496H979.699V440.964H983.577V434.496H984.809V440.978H985.873V444.604ZM988.475 439.074C988.475 439.158 988.47 439.279 988.461 439.438C988.461 439.587 988.456 439.751 988.447 439.928C988.438 440.096 988.428 440.259 988.419 440.418C988.41 440.567 988.4 440.689 988.391 440.782L992.409 434.496H993.921V442H992.773V437.576C992.773 437.427 992.773 437.231 992.773 436.988C992.782 436.745 992.792 436.507 992.801 436.274C992.81 436.031 992.82 435.849 992.829 435.728L988.839 442H987.313V434.496H988.475V439.074ZM996.771 442H995.343L997.485 438.85C997.196 438.775 996.916 438.659 996.645 438.5C996.374 438.332 996.155 438.103 995.987 437.814C995.819 437.515 995.735 437.147 995.735 436.708C995.735 435.989 995.978 435.443 996.463 435.07C996.948 434.687 997.592 434.496 998.395 434.496H1001.76V442H1000.52V439.018H998.703L996.771 442ZM996.925 436.722C996.925 437.151 997.084 437.473 997.401 437.688C997.728 437.893 998.18 437.996 998.759 437.996H1000.52V435.518H998.521C997.952 435.518 997.541 435.63 997.289 435.854C997.046 436.078 996.925 436.367 996.925 436.722Z" fill="white"/>
</svg>
